<svg width="26" height="32" viewBox="0 0 26 32" fill="none" xmlns="http://www.w3.org/2000/svg">
<path d="M18.846 7.73698C19.072 7.73698 19.4219 7.76395 19.8957 7.81791C20.3801 7.86107 20.9292 7.97977 21.5429 8.174C22.1565 8.36823 22.781 8.68117 23.4161 9.1128C24.0513 9.54443 24.6381 10.1487 25.1764 10.9256C25.1226 10.958 24.918 11.1037 24.5627 11.3627C24.2182 11.6216 23.8253 11.9993 23.3839 12.4957C22.9424 12.9813 22.5549 13.6018 22.2211 14.3571C21.8981 15.1017 21.7366 15.9919 21.7366 17.0278C21.7366 18.2148 21.9412 19.2183 22.3503 20.0384C22.7702 20.8585 23.2547 21.5222 23.8037 22.0293C24.3636 22.5365 24.8588 22.9088 25.2894 23.1462C25.7308 23.3728 25.9677 23.4915 26 23.5023C25.9892 23.5454 25.9085 23.7882 25.7578 24.2307C25.607 24.6623 25.3702 25.2234 25.0472 25.914C24.735 26.5938 24.3259 27.306 23.8199 28.0506C23.3569 28.7088 22.8778 29.3401 22.3826 29.9444C21.8981 30.5486 21.3652 31.0396 20.7838 31.4173C20.2132 31.8058 19.5673 32 18.846 32C18.2969 32 17.8286 31.9353 17.441 31.8058C17.0534 31.6763 16.682 31.5252 16.3267 31.3526C15.9822 31.1907 15.6 31.045 15.1801 30.9155C14.7602 30.786 14.2381 30.7213 13.6137 30.7213C12.7954 30.7213 12.1118 30.8238 11.5627 31.0288C11.0244 31.2446 10.513 31.4605 10.0286 31.6763C9.5441 31.8921 8.9735 32 8.31677 32C7.31553 32 6.43271 31.6061 5.66832 30.8184C4.9147 30.0307 4.13954 29.0811 3.34286 27.9697C2.72919 27.0848 2.16936 26.0651 1.66335 24.9105C1.15735 23.7559 0.753623 22.5311 0.452174 21.2362C0.150725 19.9413 0 18.6464 0 17.3515C0 15.2797 0.392961 13.5316 1.17888 12.1072C1.9648 10.6721 2.97143 9.58759 4.19876 8.85382C5.42609 8.10926 6.70186 7.73698 8.02609 7.73698C8.72588 7.73698 9.38261 7.86107 9.99627 8.10926C10.6207 8.35744 11.2021 8.60563 11.7404 8.85382C12.2787 9.09122 12.7685 9.20991 13.2099 9.20991C13.6298 9.20991 14.1251 9.09122 14.6957 8.85382C15.2663 8.60563 15.8961 8.35744 16.5851 8.10926C17.2849 7.86107 18.0385 7.73698 18.846 7.73698ZM17.7155 5.11482C17.1772 5.77306 16.499 6.31799 15.6807 6.74962C14.8733 7.18125 14.1089 7.39707 13.3876 7.39707C13.2369 7.39707 13.0915 7.38088 12.9516 7.34851C12.9408 7.30535 12.9246 7.22981 12.9031 7.1219C12.8923 7.01399 12.887 6.8953 12.887 6.76581C12.887 5.94571 13.0646 5.14719 13.4199 4.37026C13.7752 3.59332 14.1843 2.94588 14.6472 2.42792C15.2178 1.7481 15.9391 1.18159 16.8112 0.728376C17.694 0.275164 18.5391 0.0323723 19.3466 0C19.3789 0.183443 19.395 0.393863 19.395 0.63126C19.395 1.46215 19.2389 2.27146 18.9267 3.05918C18.6145 3.83612 18.2108 4.52133 17.7155 5.11482Z" fill="black"/>
</svg>
