<svg width="8" height="14" viewBox="0 0 8 14" fill="none" xmlns="http://www.w3.org/2000/svg">
<path d="M0 7C0.00509392 6.8389 0.0356574 6.69079 0.0916905 6.55568C0.152818 6.42056 0.244508 6.29065 0.366762 6.16592L6.25024 0.296214C6.44381 0.0987379 6.68068 0 6.96084 0C7.15441 0 7.3276 0.0467706 7.48042 0.140312C7.63833 0.233853 7.76313 0.361173 7.85482 0.522272C7.95161 0.678174 8 0.852264 8 1.04454C8 1.33556 7.89303 1.5902 7.67908 1.80846L2.44508 7L7.67908 12.1915C7.89303 12.415 8 12.6696 8 12.9555C8 13.1529 7.95161 13.3296 7.85482 13.4855C7.76313 13.6414 7.63833 13.7661 7.48042 13.8597C7.3276 13.9532 7.15441 14 6.96084 14C6.68068 14 6.44381 13.9013 6.25024 13.7038L0.366762 7.83408C0.239414 7.70935 0.145177 7.57944 0.0840497 7.44432C0.0280166 7.30401 0 7.1559 0 7Z" fill="black"/>
</svg>
