<svg width="12" height="12" viewBox="0 0 12 12" fill="none" xmlns="http://www.w3.org/2000/svg">
<path d="M4.38689 10.1518C4.26577 10.1518 4.1685 10.1185 4.09509 10.0518C4.02169 9.98157 3.98315 9.8903 3.97948 9.77797L3.81431 4.34401C3.81064 4.23168 3.84551 4.14217 3.91892 4.07547C3.99233 4.00527 4.08959 3.97016 4.21071 3.97016C4.33183 3.97016 4.4291 4.00527 4.5025 4.07547C4.57958 4.14217 4.61995 4.22993 4.62362 4.33875L4.78879 9.77271C4.78879 9.88504 4.75209 9.97631 4.67868 10.0465C4.60527 10.1167 4.50801 10.1518 4.38689 10.1518ZM6 10.1518C5.87888 10.1518 5.77978 10.1185 5.7027 10.0518C5.6293 9.98157 5.59259 9.8903 5.59259 9.77797V4.34401C5.59259 4.23168 5.6293 4.14217 5.7027 4.07547C5.77978 4.00527 5.87888 3.97016 6 3.97016C6.12479 3.97016 6.22389 4.00527 6.2973 4.07547C6.37437 4.14217 6.41291 4.23168 6.41291 4.34401V9.77797C6.41291 9.8903 6.37437 9.98157 6.2973 10.0518C6.22389 10.1185 6.12479 10.1518 6 10.1518ZM7.61862 10.1518C7.49383 10.1518 7.39473 10.1167 7.32132 10.0465C7.24791 9.97631 7.21305 9.88504 7.21672 9.77271L7.38188 4.34401C7.38555 4.23168 7.42409 4.14217 7.4975 4.07547C7.5709 4.00527 7.66817 3.97016 7.78929 3.97016C7.91408 3.97016 8.01134 4.00527 8.08108 4.07547C8.15449 4.14217 8.18936 4.23168 8.18569 4.34401L8.02603 9.77797C8.02236 9.8903 7.98198 9.98157 7.9049 10.0518C7.8315 10.1185 7.73607 10.1518 7.61862 10.1518ZM3.43443 2.43265V1.31637C3.43443 0.90215 3.56657 0.579201 3.83083 0.347521C4.09877 0.11584 4.4713 0 4.94845 0H7.04605C7.52319 0 7.89389 0.11584 8.15816 0.347521C8.42609 0.579201 8.56006 0.90215 8.56006 1.31637V2.43265H7.43694V1.36376C7.43694 1.2409 7.39289 1.14261 7.3048 1.06889C7.22039 0.991663 7.10661 0.95305 6.96346 0.95305H5.03103C4.88789 0.95305 4.77227 0.991663 4.68418 1.06889C4.59977 1.14261 4.55756 1.2409 4.55756 1.36376V2.43265H3.43443ZM1.04505 3.12242C0.894561 3.12242 0.766099 3.07328 0.65966 2.97499C0.55322 2.8767 0.5 2.75384 0.5 2.60641C0.5 2.46248 0.55322 2.34138 0.65966 2.24309C0.766099 2.1448 0.894561 2.09566 1.04505 2.09566H10.9605C11.1109 2.09566 11.2376 2.1448 11.3403 2.24309C11.4468 2.33787 11.5 2.45897 11.5 2.60641C11.5 2.75384 11.4486 2.8767 11.3458 2.97499C11.2431 3.07328 11.1146 3.12242 10.9605 3.12242H1.04505ZM3.46747 12C3.02336 12 2.66917 11.8824 2.4049 11.6472C2.14064 11.412 1.99933 11.0821 1.98098 10.6573L1.60661 3.01711H2.71321L3.08208 10.4467C3.08942 10.6011 3.13897 10.7258 3.23073 10.8205C3.32616 10.9153 3.44912 10.9627 3.5996 10.9627H8.39489C8.54905 10.9627 8.672 10.9153 8.76376 10.8205C8.85919 10.7293 8.91058 10.6047 8.91792 10.4467L9.27578 3.01711H10.3989L10.0245 10.652C10.0062 11.0803 9.86303 11.412 9.59509 11.6472C9.33083 11.8824 8.97848 12 8.53804 12H3.46747Z" fill="#FF0000"/>
</svg>
