<svg width="17" height="16" viewBox="0 0 17 16" fill="none" xmlns="http://www.w3.org/2000/svg">
<path d="M4.32031 15.7188C3.22656 15.7188 2.38281 15.4219 1.78906 14.8281C1.20052 14.2396 0.90625 13.3984 0.90625 12.3047V4.96094C0.90625 3.86198 1.20052 3.01823 1.78906 2.42969C2.38281 1.83594 3.22656 1.53906 4.32031 1.53906L11.5469 1.54688C11.6458 1.54688 11.7396 1.55208 11.8281 1.5625C11.9219 1.56771 12.013 1.57552 12.1016 1.58594L10.3906 3.30469C10.3073 3.29948 10.2214 3.29427 10.1328 3.28906C10.0495 3.28385 9.96615 3.28125 9.88281 3.28125H4.39062C3.83333 3.28125 3.40104 3.43229 3.09375 3.73438C2.79167 4.03646 2.64062 4.46875 2.64062 5.03125V12.2344C2.64062 12.7969 2.79167 13.2292 3.09375 13.5312C3.40104 13.8333 3.83333 13.9844 4.39062 13.9844H11.6016C12.1589 13.9844 12.5885 13.8333 12.8906 13.5312C13.1927 13.2292 13.3438 12.7969 13.3438 12.2344V6.64062C13.3438 6.57812 13.3411 6.51823 13.3359 6.46094C13.3359 6.40365 13.3333 6.34635 13.3281 6.28906L15.0391 4.57031C15.0547 4.65885 15.0651 4.75 15.0703 4.84375C15.0807 4.93229 15.0859 5.02604 15.0859 5.125V12.3047C15.0859 13.3984 14.7917 14.2396 14.2031 14.8281C13.6146 15.4219 12.7708 15.7188 11.6719 15.7188H4.32031ZM6.58594 10.3906C6.48698 10.4271 6.39323 10.4036 6.30469 10.3203C6.21615 10.237 6.19531 10.1432 6.24219 10.0391L6.94531 8.4375L13.9531 1.42969L15.2344 2.70312L8.22656 9.71094L6.58594 10.3906ZM15.8438 2.10156L14.5625 0.8125L15.0859 0.289062C15.2474 0.132812 15.4323 0.046875 15.6406 0.03125C15.8542 0.0104167 16.0312 0.0677083 16.1719 0.203125L16.3984 0.4375C16.5599 0.59375 16.638 0.776042 16.6328 0.984375C16.6276 1.19271 16.5417 1.38281 16.375 1.55469L15.8438 2.10156Z" fill="#808080"/>
</svg>
